<?xml version="1.0" encoding="UTF-8" standalone="no"?>
<svg
   viewBox="0.46875 0.46875 40 40"
   version="1.1"
   id="svg686"
   sodipodi:docname="setup.svg"
   width="40"
   height="40"
   inkscape:version="1.2 (dc2aedaf03, 2022-05-15)"
   xmlns:inkscape="http://www.inkscape.org/namespaces/inkscape"
   xmlns:sodipodi="http://sodipodi.sourceforge.net/DTD/sodipodi-0.dtd"
   xmlns="http://www.w3.org/2000/svg"
   xmlns:svg="http://www.w3.org/2000/svg">
  <defs
     id="defs690" />
  <sodipodi:namedview
     id="namedview688"
     pagecolor="#505050"
     bordercolor="#eeeeee"
     borderopacity="1"
     inkscape:showpageshadow="0"
     inkscape:pageopacity="0"
     inkscape:pagecheckerboard="0"
     inkscape:deskcolor="#505050"
     showgrid="true"
     inkscape:zoom="32.000001"
     inkscape:cx="25.109374"
     inkscape:cy="14.734374"
     inkscape:window-width="1920"
     inkscape:window-height="1001"
     inkscape:window-x="-9"
     inkscape:window-y="-9"
     inkscape:window-maximized="1"
     inkscape:current-layer="svg686">
    <inkscape:grid
       type="xygrid"
       id="grid1018"
       originx="0"
       originy="0" />
  </sodipodi:namedview>
  <path
     d="m 28.16875,20.46875 -0.5,-3.149998 c -0.316667,-0.116667 -0.65,-0.275 -1.000001,-0.475 -0.349997,-0.200001 -0.658331,-0.408334 -0.925,-0.624999 l -2.949999,1.349999 -2.325,-4.1 2.7,-1.975 c -0.03333,-0.15 -0.05416,-0.320834 -0.06248,-0.512501 -0.0084,-0.191666 -0.01255,-0.362499 -0.01255,-0.512499 0,-0.15 0.0042,-0.320834 0.01255,-0.5125015 0.0084,-0.1916655 0.02919,-0.3624984 0.06248,-0.5124985 l -2.7,-1.9750009 2.325,-4.1000006 2.949999,1.3500002 c 0.266669,-0.2166667 0.575003,-0.4250002 0.925,-0.6250003 0.350001,-0.1999999 0.683334,-0.3499999 1.000001,-0.4500001 l 0.5,-3.1750003 h 4.600001 l 0.499999,3.1500003 c 0.316668,0.1166656 0.654169,0.2708323 1.012502,0.4625002 0.358334,0.1916666 0.6625,0.4041666 0.912499,0.6375001 l 2.949999,-1.3500001 2.325,4.1000006 -2.7,1.9250004 c 0.03333,0.1666669 0.05416,0.3458335 0.06248,0.5374999 0.0084,0.1916666 0.01255,0.3708336 0.01255,0.5375006 0,0.166667 -0.0042,0.341666 -0.01255,0.524999 -0.0084,0.183334 -0.02919,0.358334 -0.06248,0.525001 l 2.7,1.95 -2.325,4.1 -2.949999,-1.349999 c -0.266667,0.216665 -0.570833,0.429165 -0.912499,0.637499 -0.341669,0.208333 -0.679169,0.362499 -1.012502,0.4625 l -0.499999,3.149998 z m 1.796621,-2.008229 0.874176,0.15468 0.504679,-2.932586 c 0.549999,-0.133333 1.689551,-0.363763 2.181218,-0.647096 0.491665,-0.283333 1.224762,-0.757582 1.624765,-1.157582 l 2.230154,1.172097 0.690641,-1.070797 -2.106936,-1.592417 c 0.06667,-0.283334 -0.07803,-0.761375 -0.03635,-1.036374 0.04165,-0.275 0.08458,-0.620458 0.08458,-0.903791 0,-0.283333 -0.01666,-0.5404031 -0.04998,-0.8154032 -0.03333,-0.275 -0.24635,-0.885623 -0.329699,-1.1689565 L 38.225688,6.9140718 37.557143,5.7327894 34.752466,7.2363432 C 34.369129,6.8030097 33.670628,6.0869561 33.187295,5.7952894 32.703962,5.5036229 32.060142,5.1835404 31.476808,5.1002069 l -0.26161,-2.7779034 -1.183535,-0.022097 -0.217418,2.7116121 c -0.566667,0.1166669 -1.758745,0.3608611 -2.25041,0.6441943 -0.491667,0.2833333 -1.15014,1.031081 -1.533476,1.4477479 l -2.362734,-1.1500004 -0.624351,0.9382144 2.372099,1.5703207 c -0.06668,0.2833334 -0.297634,0.9823447 -0.339298,1.2573448 -0.04165,0.2750001 -0.06248,0.5541667 -0.06248,0.8374997 0,0.283334 0.04292,0.5625 0.08458,0.8375 0.04166,0.275 0.140028,0.708847 0.206716,0.99218 l -2.129031,1.45758 0.911612,1.559187 2.218778,-1.166085 c 0.400003,0.4 0.783338,0.772917 1.275003,1.05625 0.491667,0.283333 1.480331,0.314889 2.03033,0.448222 z"
     id="path8454"
     style="fill:currentColor;fill-opacity:1;stroke:none;stroke-width:0.500001"
     sodipodi:nodetypes="ccscccccssccccsccccscccccssccccsccccccscccccscccccsccccscccccscccccscc" />
  <path
     d="M 11.851359,40.46875 11.112228,35.812228 Q 10.410054,35.553531 9.6339672,35.110053 8.8578804,34.666574 8.2665761,34.186141 L 3.9057065,36.181793 0.46875,30.120924 4.4600543,27.201357 Q 4.3861396,26.86875 4.367663,26.44375 4.349199,26.018748 4.349199,25.68614 q 0,-0.332609 0.018464,-0.757607 0.018464,-0.425 0.092391,-0.757611 l -3.991304,-2.919563 3.4369565,-6.06087 4.3608696,1.995652 q 0.5913043,-0.480437 1.3673911,-0.923915 0.7760868,-0.443478 1.4782608,-0.665217 l 0.739131,-4.693476 h 6.8 l 0.73913,4.656521 q 0.702174,0.258703 1.496739,0.683695 0.794565,0.425 1.348913,0.942392 l 4.36087,-1.995652 3.436956,6.06087 -3.991304,2.84565 q 0.07391,0.369565 0.0924,0.794567 0.01854,0.425 0.01854,0.794564 0,0.369567 -0.01854,0.776087 -0.01854,0.406523 -0.0924,0.776088 l 3.991304,2.882609 -3.436956,6.060869 -4.36087,-1.995652 q -0.591304,0.480433 -1.348913,0.942392 -0.757608,0.461956 -1.496739,0.683695 l -0.73913,4.656522 z m 3.4,-9.978261 q 1.995652,0 3.4,-1.404348 1.404348,-1.404348 1.404348,-3.400001 0,-1.995651 -1.404348,-3.399999 -1.404348,-1.404348 -3.4,-1.404348 -1.995653,0 -3.4,1.404348 -1.404348,1.404348 -1.404348,3.399999 0,1.995653 1.404348,3.400001 1.404347,1.404348 3.4,1.404348 z m 0,-2.217391 q -1.07174,0 -1.829348,-0.757609 -0.757609,-0.75761 -0.757609,-1.829349 0,-1.071736 0.757609,-1.829347 0.757608,-0.757608 1.829348,-0.757608 1.071739,0 1.829348,0.757608 0.757606,0.757611 0.757606,1.829347 0,1.071739 -0.757606,1.829349 -0.757609,0.757609 -1.829348,0.757609 z m 0,-2.586958 z m -1.626087,12.565219 h 3.252174 l 0.517391,-4.139131 q 1.219565,-0.295652 2.309783,-0.923915 1.090217,-0.628259 1.977173,-1.515215 l 3.917392,1.7 1.478261,-2.66087 -3.473913,-2.550001 q 0.147826,-0.62826 0.240217,-1.238042 0.09238,-0.609785 0.09238,-1.238045 0,-0.628261 -0.07391,-1.238042 -0.07391,-0.609783 -0.258696,-1.238047 l 3.473913,-2.549997 -1.478261,-2.660869 -3.917391,1.7 q -0.850005,-0.96087 -1.921743,-1.607609 -1.071739,-0.646737 -2.365217,-0.831522 l -0.517404,-4.13913 h -3.252162 l -0.517391,4.13913 q -1.256521,0.258696 -2.346739,0.886957 -1.0902174,0.628259 -1.9402173,1.552174 l -3.9173913,-1.7 -1.4782608,2.660869 3.473913,2.549997 q -0.1478146,0.628264 -0.2402054,1.238047 -0.092391,0.609781 -0.092391,1.238042 0,0.62826 0.092391,1.238045 0.092391,0.609782 0.2402176,1.238042 l -3.4739131,2.550001 1.4782609,2.66087 3.9173913,-1.7 q 0.8869563,0.886956 1.9771741,1.515215 1.090217,0.628263 2.309782,0.923915 z"
     id="path8454-4"
     style="fill:currentColor;fill-opacity:1;stroke:none;stroke-width:0.739132;stroke-opacity:1" />
  <circle
     style="fill:none;stroke:#000000;stroke-width:1.7;stroke-dasharray:none;stroke-opacity:1;paint-order:fill markers stroke"
     id="path443"
     cx="30.459858"
     cy="10.598369"
     r="2.8726213" />
</svg>
