<?xml version="1.0" encoding="UTF-8" standalone="no"?>
<svg
   viewBox="0.46875 0.46875 40 40"
   version="1.1"
   id="svg686"
   sodipodi:docname="setup.svg"
   width="40"
   height="40"
   inkscape:version="1.2 (dc2aedaf03, 2022-05-15)"
   xmlns:inkscape="http://www.inkscape.org/namespaces/inkscape"
   xmlns:sodipodi="http://sodipodi.sourceforge.net/DTD/sodipodi-0.dtd"
   xmlns="http://www.w3.org/2000/svg"
   xmlns:svg="http://www.w3.org/2000/svg">
  <defs
     id="defs690" />
  <sodipodi:namedview
     id="namedview688"
     pagecolor="#505050"
     bordercolor="#eeeeee"
     borderopacity="1"
     inkscape:showpageshadow="0"
     inkscape:pageopacity="0"
     inkscape:pagecheckerboard="0"
     inkscape:deskcolor="#505050"
     showgrid="true"
     inkscape:zoom="5.6568545"
     inkscape:cx="35.090172"
     inkscape:cy="40.747026"
     inkscape:window-width="1920"
     inkscape:window-height="1001"
     inkscape:window-x="-9"
     inkscape:window-y="-9"
     inkscape:window-maximized="1"
     inkscape:current-layer="svg686">
    <inkscape:grid
       type="xygrid"
       id="grid1018"
       originx="0"
       originy="0" />
  </sodipodi:namedview>
  <path
     d="m 28.16875,20.46875 -0.5,-3.149998 q -0.475,-0.175 -1.000001,-0.475 -0.524996,-0.300001 -0.925,-0.624999 l -2.949999,1.349999 -2.325,-4.1 2.7,-1.975 q -0.05,-0.225 -0.06248,-0.512501 -0.01255,-0.287499 -0.01255,-0.512499 0,-0.225 0.01255,-0.5125015 0.01255,-0.2874983 0.06248,-0.5124985 l -2.7,-1.9750009 2.325,-4.1000006 2.949999,1.3500002 q 0.400004,-0.3250001 0.925,-0.6250003 0.525001,-0.2999998 1.000001,-0.4500001 l 0.5,-3.1750003 h 4.600001 l 0.499999,3.1500003 q 0.475002,0.1749984 1.012502,0.4625002 0.537501,0.2874999 0.912499,0.6375001 l 2.949999,-1.3500001 2.325,4.1000006 -2.7,1.9250004 q 0.05,0.2500003 0.06248,0.5374999 0.01255,0.2875006 0.01255,0.5375006 0,0.25 -0.01255,0.524999 -0.01255,0.275001 -0.06248,0.525001 l 2.7,1.95 -2.325,4.1 -2.949999,-1.349999 q -0.4,0.324998 -0.912499,0.637499 -0.512503,0.312499 -1.012502,0.4625 l -0.499999,3.149998 z m 2.300001,-6.749997 q 1.349997,0 2.3,-0.950001 0.95,-0.950002 0.95,-2.3 0,-1.3500012 -0.95,-2.3000002 -0.950003,-0.9500009 -2.3,-0.9500009 -1.349999,0 -2.300001,0.9500009 -0.949999,0.949999 -0.949999,2.3000002 0,1.349998 0.949999,2.3 0.950002,0.950001 2.300001,0.950001 z m 0,-1.500001 q -0.725001,0 -1.2375,-0.512501 -0.512499,-0.512501 -0.512499,-1.237499 0,-0.7250009 0.512499,-1.2375003 0.512499,-0.5125005 1.2375,-0.5125005 0.725,0 1.237498,0.5125005 0.5125,0.5124992 0.5125,1.2375003 0,0.724998 -0.5125,1.2375 -0.512498,0.5125 -1.237498,0.5125 z m 0,-1.75 z m -1.100001,8.500002 h 2.200001 l 0.349999,-2.800003 q 0.824999,-0.199999 1.5625,-0.624999 0.737498,-0.425 1.337503,-1.025 l 2.649998,1.15 1.000001,-1.8 -2.350004,-1.725 q 0.100006,-0.425001 0.162522,-0.8375 0.06248,-0.4125 0.06248,-0.8375 0,-0.425 -0.04998,-0.8375002 -0.05,-0.4125 -0.175019,-0.8375002 L 38.468756,7.0687514 37.468755,5.2687506 34.818757,6.418751 q -0.575006,-0.6500003 -1.300006,-1.0875004 -0.725,-0.4374998 -1.600001,-0.5625 L 31.568751,1.9687501 H 29.36875 l -0.35,2.8000005 q -0.85,0.1750003 -1.587498,0.6000001 -0.737501,0.425 -1.312505,1.0500003 L 23.468751,5.2687506 22.46875,7.0687514 24.818752,8.7937517 q -0.100026,0.4250001 -0.162522,0.8375002 -0.06248,0.4125001 -0.06248,0.8375001 0,0.425 0.06248,0.8375 0.06249,0.4125 0.162522,0.8375 l -2.350002,1.725 1.000001,1.8 2.649996,-1.15 q 0.600005,0.6 1.337503,1.025 0.737501,0.425 1.5625,0.624999 z"
     id="path8454"
     style="fill:currentColor;fill-opacity:1;stroke:none;stroke-width:0.500001" />
  <path
     d="M 11.851359,40.46875 11.112228,35.812228 Q 10.410054,35.553531 9.6339672,35.110053 8.8578804,34.666574 8.2665761,34.186141 L 3.9057065,36.181793 0.46875,30.120924 4.4600543,27.201357 Q 4.3861396,26.86875 4.367663,26.44375 4.349199,26.018748 4.349199,25.68614 q 0,-0.332609 0.018464,-0.757607 0.018464,-0.425 0.092391,-0.757611 l -3.991304,-2.919563 3.4369565,-6.06087 4.3608696,1.995652 q 0.5913043,-0.480437 1.3673911,-0.923915 0.7760868,-0.443478 1.4782608,-0.665217 l 0.739131,-4.693476 h 6.8 l 0.73913,4.656521 q 0.702174,0.258703 1.496739,0.683695 0.794565,0.425 1.348913,0.942392 l 4.36087,-1.995652 3.436956,6.06087 -3.991304,2.84565 q 0.07391,0.369565 0.0924,0.794567 0.01854,0.425 0.01854,0.794564 0,0.369567 -0.01854,0.776087 -0.01854,0.406523 -0.0924,0.776088 l 3.991304,2.882609 -3.436956,6.060869 -4.36087,-1.995652 q -0.591304,0.480433 -1.348913,0.942392 -0.757608,0.461956 -1.496739,0.683695 l -0.73913,4.656522 z m 3.4,-9.978261 q 1.995652,0 3.4,-1.404348 1.404348,-1.404348 1.404348,-3.400001 0,-1.995651 -1.404348,-3.399999 -1.404348,-1.404348 -3.4,-1.404348 -1.995653,0 -3.4,1.404348 -1.404348,1.404348 -1.404348,3.399999 0,1.995653 1.404348,3.400001 1.404347,1.404348 3.4,1.404348 z m 0,-2.217391 q -1.07174,0 -1.829348,-0.757609 -0.757609,-0.75761 -0.757609,-1.829349 0,-1.071736 0.757609,-1.829347 0.757608,-0.757608 1.829348,-0.757608 1.071739,0 1.829348,0.757608 0.757606,0.757611 0.757606,1.829347 0,1.071739 -0.757606,1.829349 -0.757609,0.757609 -1.829348,0.757609 z m 0,-2.586958 z m -1.626087,12.565219 h 3.252174 l 0.517391,-4.139131 q 1.219565,-0.295652 2.309783,-0.923915 1.090217,-0.628259 1.977173,-1.515215 l 3.917392,1.7 1.478261,-2.66087 -3.473913,-2.550001 q 0.147826,-0.62826 0.240217,-1.238042 0.09238,-0.609785 0.09238,-1.238045 0,-0.628261 -0.07391,-1.238042 -0.07391,-0.609783 -0.258696,-1.238047 l 3.473913,-2.549997 -1.478261,-2.660869 -3.917391,1.7 q -0.850005,-0.96087 -1.921743,-1.607609 -1.071739,-0.646737 -2.365217,-0.831522 l -0.517404,-4.13913 h -3.252162 l -0.517391,4.13913 q -1.256521,0.258696 -2.346739,0.886957 -1.0902174,0.628259 -1.9402173,1.552174 l -3.9173913,-1.7 -1.4782608,2.660869 3.473913,2.549997 q -0.1478146,0.628264 -0.2402054,1.238047 -0.092391,0.609781 -0.092391,1.238042 0,0.62826 0.092391,1.238045 0.092391,0.609782 0.2402176,1.238042 l -3.4739131,2.550001 1.4782609,2.66087 3.9173913,-1.7 q 0.8869563,0.886956 1.9771741,1.515215 1.090217,0.628263 2.309782,0.923915 z"
     id="path8454-4"
     style="fill:currentColor;fill-opacity:1;stroke:none;stroke-width:0.739132;stroke-opacity:1" />
</svg>
