<?xml version="1.0" encoding="UTF-8" standalone="no"?>
<svg
   height="36"
   width="36"
   version="1.1"
   id="svg2500"
   sodipodi:docname="sketch.svg"
   inkscape:version="1.2 (dc2aedaf03, 2022-05-15)"
   xmlns:inkscape="http://www.inkscape.org/namespaces/inkscape"
   xmlns:sodipodi="http://sodipodi.sourceforge.net/DTD/sodipodi-0.dtd"
   xmlns="http://www.w3.org/2000/svg"
   xmlns:svg="http://www.w3.org/2000/svg">
  <defs
     id="defs2504" />
  <sodipodi:namedview
     id="namedview2502"
     pagecolor="#505050"
     bordercolor="#eeeeee"
     borderopacity="1"
     inkscape:showpageshadow="0"
     inkscape:pageopacity="0"
     inkscape:pagecheckerboard="0"
     inkscape:deskcolor="#505050"
     showgrid="true"
     inkscape:zoom="16.958333"
     inkscape:cx="15.066339"
     inkscape:cy="18.014742"
     inkscape:window-width="1920"
     inkscape:window-height="1001"
     inkscape:window-x="-9"
     inkscape:window-y="-9"
     inkscape:window-maximized="1"
     inkscape:current-layer="svg2500">
    <inkscape:grid
       type="xygrid"
       id="grid2623" />
  </sodipodi:namedview>
  <path
     d="m 21.55241,36 v -3 h 1.503836 q 2.957542,0 4.98772,-1.2 2.030176,-1.2 2.030176,-2.8 0,-1.15 -1.47877,-2.25 -1.478771,-1.1 -3.985163,-1.7 l 2.356008,-2.35 q 3.158054,0.95 4.636825,2.625 1.47877,1.675 1.47877,3.675 0,3.35 -3.057797,5.175 Q 26.966217,36 23.056246,36 Z M 7.0153398,21.3 Q 3.8071586,20.6 2.4035793,19.1 1,17.6 1,16 1,14.25 2.3033237,12.85 3.6066472,11.45 8.3186634,9.75 11.6271,8.55 12.579529,7.8 13.531958,7.05 13.531958,6.05 13.531958,4.8 12.429146,3.9 11.326334,3 9.0204531,3 7.1155955,3 6.2132945,3.425 5.3109935,3.85 5.0102266,4.45 H 1.2506392 Q 1.9524288,2.55 3.982606,1.275 6.0127833,0 9.0204531,0 q 3.4086929,0 5.4639329,1.625 2.055242,1.625 2.055242,4.425 0,2.05 -1.428643,3.475 Q 13.682342,10.95 9.5217317,12.5 6.1631667,13.75 5.0854183,14.475 4.0076699,15.2 4.0076699,16 q 0,0.8 1.3534515,1.525 Q 6.714573,18.25 9.4214756,18.9 Z M 31.878745,13.6 25.462383,7.2 29.723248,2.95 36.13961,9.35 Z M 6.0127833,33 H 8.1181522 L 25.412254,15.75 23.306886,13.65 6.0127833,30.9 Z m -3.00767,3 V 29.6 L 23.306886,9.35 29.723248,15.75 9.4214756,36 Z m 20.3017727,-22.35 2.105368,2.1 z"
     id="path2498"
     style="stroke-width:1.00128" />
</svg>
